HIERARCHY
ROOT joint_Root
{
	OFFSET 0.0 0.0 0.0
	CHANNELS 6 Xposition Yposition Zposition Zrotation Xrotation Yrotation 
	JOINT Hips
	{
		OFFSET 4.5925 91.4895 -427.239
		CHANNELS 6 Xposition Yposition Zposition Zrotation Xrotation Yrotation 
		JOINT Spine
		{
			OFFSET 15.7357 0.0 0.0
			CHANNELS 6 Xposition Yposition Zposition Zrotation Xrotation Yrotation 
			JOINT Chest
			{
				OFFSET 8.98455 -0.406207 0.0
				CHANNELS 6 Xposition Yposition Zposition Zrotation Xrotation Yrotation 
				JOINT Neck
				{
					OFFSET 16.3773 0.0 0.0
					CHANNELS 6 Xposition Yposition Zposition Zrotation Xrotation Yrotation 
					JOINT Head
					{
						OFFSET 6.45672 0.0 0.0
						CHANNELS 6 Xposition Yposition Zposition Zrotation Xrotation Yrotation 
						End Site
						{
							OFFSET 0.0 0.0 0.0
						}
					}
				}
				JOINT Shoulder_L
				{
					OFFSET 12.9942 -0.242716 4.98039
					CHANNELS 6 Xposition Yposition Zposition Zrotation Xrotation Yrotation 
					JOINT UpperArm_L
					{
						OFFSET 5.34809 0.0 0.0
						CHANNELS 6 Xposition Yposition Zposition Zrotation Xrotation Yrotation 
						JOINT LowerArm_L
						{
							OFFSET 24.3286 1.87007e-05 0.0
							CHANNELS 6 Xposition Yposition Zposition Zrotation Xrotation Yrotation 
							JOINT Hand_L
							{
								OFFSET 22.2916 0.0 0.0
								CHANNELS 6 Xposition Yposition Zposition Zrotation Xrotation Yrotation 
								End Site
								{
									OFFSET 0.0 0.0 0.0
								}
							}
						}
					}
				}
				JOINT Shoulder_R
				{
					OFFSET 12.9945 -0.242716 -4.98039
					CHANNELS 6 Xposition Yposition Zposition Zrotation Xrotation Yrotation 
					JOINT UpperArm_R
					{
						OFFSET -5.34813 0.0 0.0
						CHANNELS 6 Xposition Yposition Zposition Zrotation Xrotation Yrotation 
						JOINT LowerArm_R
						{
							OFFSET -24.3289 0.000322201 0.0
							CHANNELS 6 Xposition Yposition Zposition Zrotation Xrotation Yrotation 
							JOINT Hand_R
							{
								OFFSET -22.2915 -0.000108084 0.0
								CHANNELS 6 Xposition Yposition Zposition Zrotation Xrotation Yrotation 
								End Site
								{
									OFFSET 0.0 0.0 0.0
								}
							}
						}
					}
				}
			}
		}
		JOINT UpperLeg_L
		{
			OFFSET -2.19248 -6.46944 0.0
			CHANNELS 6 Xposition Yposition Zposition Zrotation Xrotation Yrotation 
			JOINT LowerLeg_L
			{
				OFFSET 39.0811 0.0 -1.23785e-05
				CHANNELS 6 Xposition Yposition Zposition Zrotation Xrotation Yrotation 
				JOINT Foot_L
				{
					OFFSET 40.9854 0.0 -1.26872e-05
					CHANNELS 6 Xposition Yposition Zposition Zrotation Xrotation Yrotation 
					JOINT Toes_L
					{
						OFFSET 11.7543 0.0 0.0
						CHANNELS 6 Xposition Yposition Zposition Zrotation Xrotation Yrotation 
						End Site
						{
							OFFSET 0.0 0.0 0.0
						}
					}
				}
			}
		}
		JOINT UpperLeg_R
		{
			OFFSET -2.19251 6.46944 0.0
			CHANNELS 6 Xposition Yposition Zposition Zrotation Xrotation Yrotation 
			JOINT LowerLeg_R
			{
				OFFSET -39.0811 -0.00228153 -0.0401928
				CHANNELS 6 Xposition Yposition Zposition Zrotation Xrotation Yrotation 
				JOINT Foot_R
				{
					OFFSET -40.9854 0.0 0.0
					CHANNELS 6 Xposition Yposition Zposition Zrotation Xrotation Yrotation 
					JOINT Toes_R
					{
						OFFSET -11.7543 0.0 0.0
						CHANNELS 6 Xposition Yposition Zposition Zrotation Xrotation Yrotation 
						End Site
						{
							OFFSET 0.0 0.0 0.0
						}
					}
				}
			}
		}
	}
}
MOTION
Frames:	6
Frame Time:	0.0333333
0.000000 0.000000 0.000000 0.000000 0.000000 -0.000000 -4.012700 79.762500 -24.106200 87.253300 -6.234990 -6.608960 15.735700 0.000005 -0.000001 91.382900 80.903800 -88.772600 8.984550 -0.406207 -0.000000 10.415200 0.496456 5.172170 16.377300 -0.000001 -0.000001 -1.916630 -1.148430 1.212970 6.456720 -0.000001 -0.000000 -7.697270 0.712329 -2.304530 12.994200 -0.242716 4.980390 -90.980900 3.109220 -72.476200 5.348090 -0.000007 -0.000001 -64.802200 31.926800 9.402790 24.328600 0.000019 0.000005 14.793100 31.213800 -27.001500 22.291600 -0.000001 0.000005 -5.338720 5.538570 -8.179090 12.994500 -0.242716 -4.980390 88.920800 8.444690 -82.691600 -5.348130 -0.000001 -0.000004 -50.182500 10.928700 -36.982200 -24.328900 0.000322 -0.000009 -7.780830 -3.607510 -65.278700 -22.291500 -0.000108 -0.000004 8.838790 5.607470 -11.799800 -2.192480 -6.469440 -0.000000 -178.329000 -6.726410 -47.483800 39.081100 -0.000007 -0.000012 -0.408252 -0.390517 133.728000 40.985400 -0.000006 -0.000013 3.200060 2.907810 -21.551900 11.754300 -0.000000 0.000003 -0.003060 -0.041287 -18.255900 -2.192510 6.469440 -0.000001 -173.012000 5.698700 154.377000 -39.081100 -0.002282 -0.040193 0.261844 -0.127217 63.811600 -40.985400 0.000008 0.000006 11.348400 -5.307090 -94.396000 -11.754300 -0.000006 -0.000006 -0.005406 -0.065340 -19.231900
0.000000 0.000000 0.000000 0.000000 0.000000 -0.000000 -2.872330 81.359500 -11.505000 90.595100 -9.592900 -7.581280 15.735700 0.000005 -0.000001 103.819000 81.515000 -102.748000 8.984550 -0.406207 -0.000000 8.691860 4.041990 1.833560 16.377300 -0.000001 -0.000001 -1.220910 -1.937960 1.917970 6.456720 -0.000001 -0.000000 -7.192330 -1.647540 -1.696330 12.994200 -0.242716 4.980390 -90.522500 1.509380 -70.887200 5.348090 -0.000007 -0.000001 -67.478500 33.584700 18.471700 24.328600 0.000019 0.000005 12.872900 24.629100 -28.752900 22.291600 -0.000001 0.000005 -4.923720 5.553240 -8.858910 12.994500 -0.242716 -4.980390 89.235800 5.816820 -82.502300 -5.348130 -0.000001 -0.000004 -47.611000 8.068910 -43.172100 -24.328900 0.000322 -0.000009 -8.368460 -2.733320 -72.028200 -22.291500 -0.000108 -0.000004 9.556740 5.591510 -10.852200 -2.192480 -6.469440 -0.000000 174.930000 -6.383450 -54.233400 39.081100 -0.000007 -0.000012 -0.343619 -0.247105 125.723000 40.985400 -0.000006 -0.000013 7.614740 -2.790780 -35.867100 11.754300 -0.000000 0.000003 -0.003023 -0.040872 -18.239000 -2.192510 6.469440 -0.000001 178.959000 6.931320 166.527000 -39.081100 -0.002282 -0.040193 0.151298 -0.106795 54.198600 -40.985400 0.000008 0.000006 11.267500 0.619898 -92.059600 -11.754300 -0.000006 -0.000006 -0.299251 -0.446397 -24.498700
0.000000 0.000000 0.000000 0.000000 0.000000 -0.000000 -1.960000 84.672900 1.493620 93.519800 -11.886700 -9.905780 15.735700 0.000005 -0.000001 115.031000 82.339200 -115.633000 8.984550 -0.406207 -0.000000 6.181340 6.473050 -1.552710 16.377300 -0.000001 -0.000001 -0.600883 -2.346380 2.807300 6.456720 -0.000001 -0.000000 -6.951370 -3.506500 -0.765930 12.994200 -0.242716 4.980390 -89.653400 -0.939848 -69.770400 5.348090 -0.000007 -0.000001 -70.041700 31.555500 26.076400 24.328600 0.000019 0.000005 9.669890 16.477600 -30.998600 22.291600 -0.000001 0.000005 -4.082070 5.559390 -9.157580 12.994500 -0.242716 -4.980390 89.494100 3.713920 -82.235700 -5.348130 -0.000001 -0.000004 -47.468000 7.690550 -44.758600 -24.328900 0.000322 -0.000009 -8.447200 -2.062920 -76.375000 -22.291500 -0.000108 -0.000004 8.890000 5.573950 -9.888820 -2.192480 -6.469440 -0.000000 170.729000 -4.038730 -57.906500 39.081100 -0.000007 -0.000012 -0.090330 -0.031239 109.083000 40.985400 -0.000006 -0.000013 9.158360 -9.236530 -47.103300 11.754300 -0.000000 0.000003 -0.002640 -0.036467 -18.059700 -2.192510 6.469440 -0.000001 172.212000 6.536610 175.578000 -39.081100 -0.002282 -0.040193 0.091252 -0.094599 42.924400 -40.985400 0.000008 0.000006 10.652400 6.059820 -75.903900 -11.754300 -0.000006 -0.000006 -0.161247 -0.576474 -41.026400
0.000000 0.000000 0.000000 0.000000 0.000000 -0.000000 -1.434840 88.432800 14.195200 94.031200 -12.033000 -11.816300 15.735700 0.000005 -0.000001 121.317000 82.939700 -122.643000 8.984550 -0.406207 -0.000000 4.413720 7.366350 -2.934470 16.377300 -0.000001 -0.000001 0.024400 -3.064230 3.416990 6.456720 -0.000001 -0.000000 -7.507900 -5.049490 -0.156206 12.994200 -0.242716 4.980390 -88.804300 -3.174990 -69.351700 5.348090 -0.000007 -0.000001 -72.415800 28.030600 31.370900 24.328600 0.000019 0.000005 10.826700 16.759200 -33.552900 22.291600 -0.000001 0.000005 -2.700000 5.561290 -9.250620 12.994500 -0.242716 -4.980390 89.595600 2.811960 -81.813500 -5.348130 -0.000001 -0.000004 -47.937400 9.472680 -44.970600 -24.328900 0.000322 -0.000009 -7.324990 -1.631600 -77.507200 -22.291500 -0.000108 -0.000004 8.312120 5.567090 -9.539790 -2.192480 -6.469440 -0.000000 170.775000 -1.984400 -57.480100 39.081100 -0.000007 -0.000012 0.050861 -0.002863 86.769000 40.985400 -0.000006 -0.000013 8.395260 -14.285300 -54.777400 11.754300 -0.000000 0.000003 -0.003060 -0.041288 -18.255900 -2.192510 6.469440 -0.000001 168.160000 11.252100 -178.388000 -39.081100 -0.002282 -0.040193 0.097843 -0.142983 33.474900 -40.985400 0.000008 0.000006 8.508830 14.053700 -49.725700 -11.754300 -0.000006 -0.000006 -0.284091 -0.769336 -50.307500
0.000000 0.000000 0.000000 0.000000 0.000000 -0.000000 -1.555630 90.868800 26.940500 91.971800 -10.723100 -10.397100 15.735700 0.000005 -0.000001 119.948000 82.580400 -120.845000 8.984550 -0.406207 -0.000000 5.185020 7.412530 -2.129440 16.377300 -0.000001 -0.000001 0.937842 -3.752690 3.934190 6.456720 -0.000001 -0.000000 -8.766580 -5.986090 -0.170432 12.994200 -0.242716 4.980390 -88.244000 -4.627790 -69.194100 5.348090 -0.000007 -0.000001 -74.457100 25.659700 34.686800 24.328600 0.000019 0.000005 11.516800 16.669200 -35.387800 22.291600 -0.000001 0.000005 -2.558510 5.558560 -9.116060 12.994500 -0.242716 -4.980390 89.590100 2.914720 -81.992400 -5.348130 -0.000001 -0.000004 -47.810000 12.002500 -44.143900 -24.328900 0.000322 -0.000009 -6.334480 -1.449330 -77.159800 -22.291500 -0.000108 -0.000004 8.243340 5.565390 -9.453290 -2.192480 -6.469440 -0.000000 173.964000 -2.056940 -50.175400 39.081100 -0.000007 -0.000012 0.099696 -0.054311 61.417500 40.985400 -0.000006 -0.000013 7.706490 -10.557800 -61.594800 11.754300 -0.000000 0.000003 -0.003219 -0.043067 -18.328300 -2.192510 6.469440 -0.000001 164.389000 18.466600 -171.086000 -39.081100 -0.002282 -0.040193 0.179586 -0.305604 29.978100 -40.985400 0.000008 0.000006 -2.767780 16.033300 -29.047400 -11.754300 -0.000006 -0.000006 -0.011843 -0.116927 -21.339500
0.000000 0.000000 0.000000 0.000000 0.000000 -0.000000 -2.062830 91.444700 39.515700 89.526900 -12.250100 -10.245500 15.735700 0.000005 -0.000001 125.690000 82.147000 -126.178000 8.984550 -0.406207 -0.000000 5.081110 9.155530 -1.383970 16.377300 -0.000001 -0.000001 0.655608 -3.720200 3.413500 6.456720 -0.000001 -0.000000 -8.079250 -6.586980 0.079484 12.994200 -0.242716 4.980390 -88.132900 -4.883430 -69.046000 5.348090 -0.000007 -0.000001 -74.525200 23.207500 35.806700 24.328600 0.000019 0.000005 11.471400 15.598100 -37.042500 22.291600 -0.000001 0.000005 -2.941420 5.550160 -8.715990 12.994500 -0.242716 -4.980390 89.640400 2.606090 -82.141400 -5.348130 -0.000001 -0.000004 -48.993900 15.263500 -41.482500 -24.328900 0.000322 -0.000009 -6.241980 -1.602500 -75.660600 -22.291500 -0.000108 -0.000004 9.098610 5.575910 -9.980510 -2.192480 -6.469440 -0.000000 176.279000 -6.993200 -42.406700 39.081100 -0.000007 -0.000012 0.024930 -0.036748 34.151900 40.985400 -0.000006 -0.000013 2.782310 0.288374 -67.435100 11.754300 -0.000000 0.000003 -0.003525 -0.046414 -18.464500 -2.192510 6.469440 -0.000001 164.443000 15.415200 -168.679000 -39.081100 -0.002282 -0.040193 0.261333 -0.345786 36.732800 -40.985400 0.000008 0.000006 -1.909350 12.544200 -30.805200 -11.754300 -0.000006 -0.000006 -0.013851 -0.130459 -21.894100
